<svg width="453" height="428" viewBox="0 0 453 428" fill="none" xmlns="http://www.w3.org/2000/svg">
<path d="M333.276 328.25L333.259 328.251L333.242 328.252L333.189 328.257L333.139 328.261L333.092 328.276C311.664 334.65 294.752 340.631 282.358 346.229L282.357 346.229C274.646 349.736 266.549 354.054 258.072 359.191C254.407 361.384 250.986 363.593 247.823 365.812L247.815 365.818L247.806 365.825L246.511 366.818L246.443 366.869L246.397 366.941C245.862 367.757 245.324 368.318 244.795 368.66C244.714 368.708 244.632 368.756 244.551 368.804L245.04 369.675C245.134 369.625 245.227 369.571 245.319 369.512C262.47 359.422 276.352 351.945 286.974 347.072C291.223 345.139 296.375 343.013 302.424 340.693L302.424 340.693L302.429 340.691C306.334 339.146 315.724 335.718 330.61 330.396L330.61 330.396L330.616 330.394C331.675 330 332.448 329.703 332.932 329.503C333.168 329.405 333.353 329.324 333.468 329.262C333.498 329.246 333.531 329.228 333.564 329.206L333.565 329.205C333.585 329.192 333.655 329.146 333.713 329.069C333.74 329.034 333.821 328.92 333.818 328.75C333.814 328.533 333.681 328.391 333.573 328.326C333.485 328.273 333.403 328.26 333.372 328.255C333.332 328.25 333.298 328.25 333.276 328.25Z" fill="#EF4444" stroke="#EF4444"/>
<path d="M118.751 328.252L118.736 328.251L118.721 328.25C118.699 328.25 118.664 328.25 118.624 328.256C118.592 328.26 118.506 328.274 118.415 328.332C118.299 328.405 118.174 328.557 118.18 328.773C118.184 328.936 118.265 329.044 118.29 329.076C118.348 329.149 118.415 329.193 118.435 329.207C118.436 329.207 118.436 329.207 118.436 329.207C118.468 329.228 118.501 329.247 118.531 329.263C118.646 329.324 118.83 329.405 119.067 329.503C119.549 329.703 120.322 330 121.381 330.394L121.381 330.394L121.387 330.396C136.272 335.718 145.662 339.146 149.568 340.691L149.568 340.691L149.573 340.693C155.621 343.013 160.774 345.139 165.027 347.072C175.641 351.944 189.517 359.417 206.665 369.501C206.763 369.565 206.862 369.623 206.963 369.676L207.45 368.804C207.364 368.752 207.277 368.701 207.19 368.65C206.663 368.307 206.13 367.75 205.6 366.941L205.554 366.87L205.487 366.818L204.196 365.825L204.187 365.818L204.178 365.812C201.011 363.593 197.594 361.384 193.925 359.191C185.448 354.054 177.356 349.736 169.64 346.229L169.639 346.229C157.25 340.631 140.332 334.65 118.91 328.276L118.86 328.261L118.809 328.257L118.751 328.252Z" fill="#EF4444" stroke="#EF4444"/>
<path d="M298.146 364.094H298.145L297.449 364.094L297.447 364.094C291.677 364.123 287.211 364.305 284.057 364.643C277.969 365.181 272.994 365.796 269.137 366.486C265.097 367.185 261.305 368.087 257.757 369.192C256.644 369.537 255.627 369.947 254.716 370.417C254.25 370.6 253.877 370.986 253.567 371.474L253.371 371.572C253.31 371.598 253.252 371.628 253.202 371.661L253.7 372.526L253.788 372.482C253.81 372.473 253.842 372.461 253.887 372.445C253.994 372.408 254.143 372.363 254.336 372.309C254.722 372.202 255.265 372.068 255.968 371.907C257.372 371.584 259.397 371.155 262.044 370.621L262.044 370.621L262.048 370.62C263.995 370.21 266.851 369.728 270.629 369.172C278.083 368.104 285.422 367.405 292.65 367.075L292.651 367.075C299.634 366.744 306.305 366.677 312.663 366.859C315.004 366.931 317.62 367.074 320.512 367.29C320.512 367.29 320.513 367.29 320.514 367.29L323.838 367.562C323.839 367.563 323.84 367.563 323.841 367.563C330.136 368.159 333.567 368.469 334.069 368.481C334.935 368.537 335.585 368.543 335.969 368.473L336.022 368.463L336.072 368.443C336.12 368.423 336.177 368.395 336.233 368.359C336.282 368.326 336.369 368.261 336.431 368.151C336.507 368.018 336.532 367.844 336.462 367.676C336.405 367.537 336.306 367.457 336.253 367.419C336.145 367.344 336.016 367.302 335.923 367.276C335.816 367.246 335.69 367.22 335.549 367.196C332.978 366.735 331.133 366.427 330.029 366.272L330.026 366.272C326.171 365.752 322.047 365.286 317.666 364.878V364.878L317.661 364.878C311.605 364.372 305.1 364.113 298.146 364.094Z" fill="#EF4444" stroke="#EF4444"/>
<path d="M153.858 364.094L153.857 364.094C146.908 364.113 140.398 364.372 134.342 364.878L134.337 364.878C129.956 365.286 125.832 365.752 121.977 366.272L121.977 366.272L121.974 366.272C120.87 366.427 119.03 366.735 116.459 367.196C116.317 367.22 116.19 367.246 116.083 367.276C115.99 367.302 115.861 367.343 115.753 367.418C115.699 367.455 115.6 367.535 115.542 367.673C115.472 367.841 115.495 368.016 115.571 368.15C115.634 368.261 115.721 368.326 115.77 368.359C115.826 368.395 115.883 368.423 115.931 368.443L115.981 368.463L116.034 368.473C116.418 368.543 117.068 368.537 117.934 368.481C118.436 368.469 121.867 368.159 128.162 367.563L131.494 367.29C131.495 367.29 131.496 367.29 131.496 367.29C134.383 367.074 136.999 366.931 139.34 366.859C145.703 366.677 152.374 366.744 159.357 367.075L159.358 367.075C166.581 367.405 173.919 368.104 181.374 369.172C185.151 369.728 188.008 370.21 189.955 370.62L189.959 370.621C192.606 371.155 194.632 371.584 196.037 371.907C196.74 372.068 197.283 372.202 197.669 372.309C197.862 372.363 198.01 372.408 198.117 372.445C198.159 372.46 198.19 372.471 198.211 372.48L198.303 372.526L198.804 371.662C198.752 371.628 198.69 371.597 198.627 371.57L198.438 371.475C198.129 370.984 197.752 370.599 197.287 370.417C196.377 369.947 195.364 369.538 194.246 369.192C190.698 368.087 186.906 367.185 182.871 366.486C179.014 365.796 174.039 365.181 167.946 364.643C164.792 364.305 160.326 364.123 154.557 364.094H154.554L153.858 364.094Z" fill="#EF4444" stroke="#EF4444"/>
<path d="M251.545 379.244L252.175 379.306L255.117 379.821L255.135 379.824L255.153 379.826C259.162 380.229 261.504 380.492 262.206 380.604L262.206 380.604L262.213 380.605C263.629 380.81 264.891 381.029 265.993 381.252C280.623 384.32 289.834 386.44 293.656 387.608L293.656 387.608L293.664 387.61C296.41 388.402 300.255 389.702 305.198 391.509L305.201 391.511C307.835 392.452 313.694 394.732 322.783 398.356L322.788 398.357C323.508 398.637 324.093 398.853 324.541 399.006C324.973 399.153 325.316 399.255 325.53 399.284L325.834 398.348C321.048 395.786 315.487 393.179 309.152 390.536C302.819 387.869 297.422 385.87 292.961 384.549L292.957 384.548C285.157 382.299 277.797 380.52 270.87 379.206L270.87 379.206L270.864 379.205C263.708 377.95 258.736 377.378 255.988 377.514L255.711 377.518C254.676 377.523 253.908 377.565 253.434 377.65C252.869 377.732 252.443 377.817 252.162 377.898L252.052 377.93L251.967 378.006C251.833 378.126 251.729 378.19 251.655 378.221C251.62 378.235 251.596 378.241 251.582 378.243L251.51 378.236L251.361 379.223C251.423 379.236 251.484 379.243 251.545 379.244Z" fill="#EF4444" stroke="#EF4444"/>
<path d="M196.887 379.821L199.833 379.306L200.46 379.244C200.52 379.242 200.581 379.236 200.643 379.223L200.494 378.236L200.423 378.243C200.409 378.241 200.385 378.235 200.351 378.221C200.278 378.19 200.172 378.125 200.034 378.003L199.95 377.929L199.842 377.898C199.561 377.817 199.135 377.732 198.574 377.65C198.101 377.565 197.332 377.523 196.293 377.518C196.292 377.518 196.291 377.518 196.29 377.518L196.016 377.514C193.268 377.378 188.296 377.95 181.14 379.205L181.14 379.205L181.134 379.206C174.212 380.519 166.847 382.299 159.047 384.548L159.043 384.549C154.586 385.87 149.185 387.869 142.852 390.536C136.517 393.179 130.956 395.786 126.17 398.348L126.473 399.284C126.689 399.255 127.033 399.153 127.465 399.006C127.912 398.853 128.496 398.637 129.216 398.357L129.216 398.357L129.221 398.356C138.31 394.732 144.169 392.452 146.802 391.511L146.806 391.509C151.754 389.702 155.594 388.402 158.34 387.61L158.34 387.61L158.348 387.608C162.174 386.44 171.385 384.32 186.015 381.252C187.118 381.029 188.375 380.81 189.791 380.605L189.797 380.604C190.504 380.492 192.847 380.229 196.851 379.826L196.869 379.824L196.887 379.821Z" fill="#EF4444" stroke="#EF4444"/>
<mask id="path-7-outside-1_592_2340" maskUnits="userSpaceOnUse" x="-1" y="0" width="454" height="428" fill="black">
<rect fill="white" x="-1" width="454" height="428"/>
<path d="M281.755 166.198C284.088 166.589 286.468 166.786 288.833 166.786C302.307 166.786 315.484 160.563 326.942 148.786C339.968 135.396 349.114 116.307 352.692 95.0365C356.27 73.7708 353.869 52.7396 345.942 35.8281C337.728 18.3177 324.588 7.22396 308.932 4.59375C306.598 4.19792 304.213 4 301.848 4C288.38 4 275.202 10.224 263.744 22.0052C250.718 35.3906 241.572 54.4792 237.994 75.75C234.416 97.0208 236.812 118.047 244.744 134.958C252.952 152.469 266.098 163.563 281.755 166.198ZM247.499 77.349C253.609 41.0313 276.994 13.6406 301.895 13.6406C303.713 13.6406 305.546 13.7969 307.333 14.0938C319.921 16.2135 330.603 25.526 337.411 40.3125C344.359 55.401 346.411 74.2708 343.187 93.4427C337.077 129.76 313.692 157.146 288.791 157.146C286.973 157.146 285.14 156.995 283.353 156.693C256.973 152.255 240.89 116.661 247.499 77.349ZM446.124 161.229C441.739 143.427 431.567 130.672 417.489 125.313C412.843 123.547 407.921 122.651 402.864 122.651C392.77 122.651 382.171 126.266 372.218 133.104C357.656 143.115 345.635 159.13 338.38 178.198C331.124 197.26 329.458 217.214 333.682 234.38C338.067 252.177 348.234 264.938 362.317 270.292C366.963 272.063 371.885 272.958 376.937 272.958C387.036 272.958 397.63 269.344 407.588 262.5C422.15 252.49 434.171 236.474 441.426 217.411C448.682 198.344 450.348 178.391 446.124 161.229ZM432.416 213.979C425.853 231.234 415.093 245.646 402.13 254.557C393.791 260.286 385.077 263.313 376.926 263.313C373.041 263.313 369.281 262.63 365.744 261.286C354.708 257.083 346.645 246.714 343.041 232.073C339.281 216.792 340.822 198.875 347.39 181.625C358.442 152.583 381.265 132.297 402.895 132.297C406.775 132.297 410.531 132.979 414.062 134.318C425.234 138.573 433.338 149.099 436.88 163.953C440.505 179.135 438.916 196.901 432.416 213.979ZM125.468 148.786C136.926 160.563 150.103 166.786 163.577 166.786C165.937 166.786 168.322 166.589 170.661 166.198C186.312 163.563 199.458 152.469 207.666 134.958C215.598 118.047 217.994 97.0208 214.416 75.75C210.838 54.4792 201.697 35.3906 188.671 22.0052C177.208 10.224 164.031 4 150.562 4C148.197 4 145.812 4.19792 143.478 4.59375C127.822 7.22396 114.682 18.3177 106.473 35.8281C98.541 52.7396 96.1451 73.7708 99.7181 95.0365C103.296 116.307 112.442 135.396 125.468 148.786ZM114.999 40.3125C121.807 25.526 132.489 16.2135 145.077 14.0938C146.864 13.7969 148.697 13.6406 150.515 13.6406C175.416 13.6406 198.801 41.0313 204.911 77.349C211.52 116.661 195.442 152.255 169.057 156.693C167.27 156.995 165.442 157.146 163.619 157.146C138.718 157.141 115.333 129.755 109.228 93.4427C105.999 74.2708 108.051 55.401 114.999 40.3125ZM118.728 234.38C122.952 217.219 121.286 197.266 114.031 178.198C106.775 159.13 94.7597 143.115 80.192 133.104C70.2389 126.266 59.6399 122.646 49.5462 122.646C44.4889 122.646 39.567 123.547 34.9212 125.313C20.843 130.672 10.6712 143.427 6.28576 161.229C2.0618 178.391 3.72846 198.344 10.9837 217.411C18.2441 236.474 30.2597 252.49 44.8274 262.5C54.7806 269.344 65.3795 272.958 75.4733 272.958C80.5253 272.958 85.4472 272.063 90.0931 270.292C104.176 264.938 114.343 252.177 118.728 234.38ZM75.4889 263.313C67.3326 263.313 58.6139 260.281 50.2858 254.557C37.317 245.646 26.5566 231.234 19.9941 213.979C13.4941 196.901 11.9108 179.135 15.5305 163.953C19.0722 149.099 27.1764 138.573 38.3535 134.318C41.8795 132.979 45.6347 132.297 49.5201 132.297C71.1451 132.297 93.9733 152.583 105.025 181.625C111.588 198.875 113.13 216.792 109.369 232.073C105.765 246.714 97.7024 257.083 86.666 261.286C83.1347 262.63 79.3743 263.313 75.4889 263.313ZM346.077 294.724C330.916 271.031 313.801 250.901 296.588 236.516C273.572 217.286 249.895 207.536 226.202 207.536C202.515 207.536 178.838 217.286 155.827 236.516C138.609 250.901 121.494 271.031 106.333 294.724C96.9003 309.469 84.8951 331.807 81.291 354.484C77.1764 380.385 84.7493 400.474 103.807 414.193C112.369 420.365 123.15 423.49 135.838 423.49C141.166 423.49 146.822 422.922 152.666 421.802C180.322 416.5 210.645 398.943 226.202 379.484C241.765 398.943 272.093 416.5 299.749 421.802C305.588 422.922 311.249 423.49 316.572 423.49C329.26 423.49 340.041 420.365 348.609 414.193C367.661 400.474 375.234 380.385 371.119 354.484C367.515 331.807 355.515 309.474 346.077 294.724ZM227.557 363.495L184.255 310.807C184.244 310.797 184.171 310.714 184.166 310.703C178.999 304.896 176.484 298.818 176.484 292.125C176.484 278.797 187.327 267.958 200.65 267.958C209.562 267.958 217.728 272.849 221.963 280.719C222.807 282.281 224.432 283.255 226.208 283.255C227.984 283.255 229.614 282.281 230.452 280.719C234.682 272.844 242.843 267.958 251.755 267.958C265.083 267.958 275.926 278.797 275.926 292.125C275.926 297.526 274.932 301.354 272.603 304.906L227.557 363.495ZM342.973 406.37C336.088 411.333 327.213 413.849 316.603 413.849H316.598C311.848 413.849 306.791 413.339 301.562 412.339C275.619 407.365 246.551 390.255 232.885 372.375L280.348 310.641C280.416 310.552 280.484 310.458 280.541 310.375C284.015 305.161 285.562 299.531 285.562 292.125C285.562 273.484 270.395 258.318 251.755 258.318C241.932 258.318 232.588 262.635 226.208 269.995C219.822 262.635 210.478 258.318 200.656 258.318C182.015 258.318 166.848 273.484 166.848 292.125C166.848 301.271 170.145 309.432 176.874 317.005L220.869 370.542C207.848 389.073 177.676 407.193 150.848 412.339C145.624 413.339 140.567 413.849 135.817 413.849C125.197 413.849 116.322 411.333 109.437 406.375C93.5826 394.953 87.3118 378.005 90.8066 356C94.1503 334.969 105.51 313.896 114.452 299.922C129.088 277.042 145.536 257.677 162.005 243.911C183.239 226.172 204.838 217.177 226.208 217.177C247.572 217.177 269.171 226.172 290.406 243.911C306.874 257.677 323.322 277.042 337.958 299.922C346.9 313.896 358.26 334.969 361.603 356C365.098 378.005 358.833 394.953 342.973 406.375V406.37Z"/>
</mask>
<path d="M281.755 166.198C284.088 166.589 286.468 166.786 288.833 166.786C302.307 166.786 315.484 160.563 326.942 148.786C339.968 135.396 349.114 116.307 352.692 95.0365C356.27 73.7708 353.869 52.7396 345.942 35.8281C337.728 18.3177 324.588 7.22396 308.932 4.59375C306.598 4.19792 304.213 4 301.848 4C288.38 4 275.202 10.224 263.744 22.0052C250.718 35.3906 241.572 54.4792 237.994 75.75C234.416 97.0208 236.812 118.047 244.744 134.958C252.952 152.469 266.098 163.563 281.755 166.198ZM247.499 77.349C253.609 41.0313 276.994 13.6406 301.895 13.6406C303.713 13.6406 305.546 13.7969 307.333 14.0938C319.921 16.2135 330.603 25.526 337.411 40.3125C344.359 55.401 346.411 74.2708 343.187 93.4427C337.077 129.76 313.692 157.146 288.791 157.146C286.973 157.146 285.14 156.995 283.353 156.693C256.973 152.255 240.89 116.661 247.499 77.349ZM446.124 161.229C441.739 143.427 431.567 130.672 417.489 125.313C412.843 123.547 407.921 122.651 402.864 122.651C392.77 122.651 382.171 126.266 372.218 133.104C357.656 143.115 345.635 159.13 338.38 178.198C331.124 197.26 329.458 217.214 333.682 234.38C338.067 252.177 348.234 264.938 362.317 270.292C366.963 272.063 371.885 272.958 376.937 272.958C387.036 272.958 397.63 269.344 407.588 262.5C422.15 252.49 434.171 236.474 441.426 217.411C448.682 198.344 450.348 178.391 446.124 161.229ZM432.416 213.979C425.853 231.234 415.093 245.646 402.13 254.557C393.791 260.286 385.077 263.313 376.926 263.313C373.041 263.313 369.281 262.63 365.744 261.286C354.708 257.083 346.645 246.714 343.041 232.073C339.281 216.792 340.822 198.875 347.39 181.625C358.442 152.583 381.265 132.297 402.895 132.297C406.775 132.297 410.531 132.979 414.062 134.318C425.234 138.573 433.338 149.099 436.88 163.953C440.505 179.135 438.916 196.901 432.416 213.979ZM125.468 148.786C136.926 160.563 150.103 166.786 163.577 166.786C165.937 166.786 168.322 166.589 170.661 166.198C186.312 163.563 199.458 152.469 207.666 134.958C215.598 118.047 217.994 97.0208 214.416 75.75C210.838 54.4792 201.697 35.3906 188.671 22.0052C177.208 10.224 164.031 4 150.562 4C148.197 4 145.812 4.19792 143.478 4.59375C127.822 7.22396 114.682 18.3177 106.473 35.8281C98.541 52.7396 96.1451 73.7708 99.7181 95.0365C103.296 116.307 112.442 135.396 125.468 148.786ZM114.999 40.3125C121.807 25.526 132.489 16.2135 145.077 14.0938C146.864 13.7969 148.697 13.6406 150.515 13.6406C175.416 13.6406 198.801 41.0313 204.911 77.349C211.52 116.661 195.442 152.255 169.057 156.693C167.27 156.995 165.442 157.146 163.619 157.146C138.718 157.141 115.333 129.755 109.228 93.4427C105.999 74.2708 108.051 55.401 114.999 40.3125ZM118.728 234.38C122.952 217.219 121.286 197.266 114.031 178.198C106.775 159.13 94.7597 143.115 80.192 133.104C70.2389 126.266 59.6399 122.646 49.5462 122.646C44.4889 122.646 39.567 123.547 34.9212 125.313C20.843 130.672 10.6712 143.427 6.28576 161.229C2.0618 178.391 3.72846 198.344 10.9837 217.411C18.2441 236.474 30.2597 252.49 44.8274 262.5C54.7806 269.344 65.3795 272.958 75.4733 272.958C80.5253 272.958 85.4472 272.063 90.0931 270.292C104.176 264.938 114.343 252.177 118.728 234.38ZM75.4889 263.313C67.3326 263.313 58.6139 260.281 50.2858 254.557C37.317 245.646 26.5566 231.234 19.9941 213.979C13.4941 196.901 11.9108 179.135 15.5305 163.953C19.0722 149.099 27.1764 138.573 38.3535 134.318C41.8795 132.979 45.6347 132.297 49.5201 132.297C71.1451 132.297 93.9733 152.583 105.025 181.625C111.588 198.875 113.13 216.792 109.369 232.073C105.765 246.714 97.7024 257.083 86.666 261.286C83.1347 262.63 79.3743 263.313 75.4889 263.313ZM346.077 294.724C330.916 271.031 313.801 250.901 296.588 236.516C273.572 217.286 249.895 207.536 226.202 207.536C202.515 207.536 178.838 217.286 155.827 236.516C138.609 250.901 121.494 271.031 106.333 294.724C96.9003 309.469 84.8951 331.807 81.291 354.484C77.1764 380.385 84.7493 400.474 103.807 414.193C112.369 420.365 123.15 423.49 135.838 423.49C141.166 423.49 146.822 422.922 152.666 421.802C180.322 416.5 210.645 398.943 226.202 379.484C241.765 398.943 272.093 416.5 299.749 421.802C305.588 422.922 311.249 423.49 316.572 423.49C329.26 423.49 340.041 420.365 348.609 414.193C367.661 400.474 375.234 380.385 371.119 354.484C367.515 331.807 355.515 309.474 346.077 294.724ZM227.557 363.495L184.255 310.807C184.244 310.797 184.171 310.714 184.166 310.703C178.999 304.896 176.484 298.818 176.484 292.125C176.484 278.797 187.327 267.958 200.65 267.958C209.562 267.958 217.728 272.849 221.963 280.719C222.807 282.281 224.432 283.255 226.208 283.255C227.984 283.255 229.614 282.281 230.452 280.719C234.682 272.844 242.843 267.958 251.755 267.958C265.083 267.958 275.926 278.797 275.926 292.125C275.926 297.526 274.932 301.354 272.603 304.906L227.557 363.495ZM342.973 406.37C336.088 411.333 327.213 413.849 316.603 413.849H316.598C311.848 413.849 306.791 413.339 301.562 412.339C275.619 407.365 246.551 390.255 232.885 372.375L280.348 310.641C280.416 310.552 280.484 310.458 280.541 310.375C284.015 305.161 285.562 299.531 285.562 292.125C285.562 273.484 270.395 258.318 251.755 258.318C241.932 258.318 232.588 262.635 226.208 269.995C219.822 262.635 210.478 258.318 200.656 258.318C182.015 258.318 166.848 273.484 166.848 292.125C166.848 301.271 170.145 309.432 176.874 317.005L220.869 370.542C207.848 389.073 177.676 407.193 150.848 412.339C145.624 413.339 140.567 413.849 135.817 413.849C125.197 413.849 116.322 411.333 109.437 406.375C93.5826 394.953 87.3118 378.005 90.8066 356C94.1503 334.969 105.51 313.896 114.452 299.922C129.088 277.042 145.536 257.677 162.005 243.911C183.239 226.172 204.838 217.177 226.208 217.177C247.572 217.177 269.171 226.172 290.406 243.911C306.874 257.677 323.322 277.042 337.958 299.922C346.9 313.896 358.26 334.969 361.603 356C365.098 378.005 358.833 394.953 342.973 406.375V406.37Z" fill="#EF4444"/>
<path d="M281.755 166.198C284.088 166.589 286.468 166.786 288.833 166.786C302.307 166.786 315.484 160.563 326.942 148.786C339.968 135.396 349.114 116.307 352.692 95.0365C356.27 73.7708 353.869 52.7396 345.942 35.8281C337.728 18.3177 324.588 7.22396 308.932 4.59375C306.598 4.19792 304.213 4 301.848 4C288.38 4 275.202 10.224 263.744 22.0052C250.718 35.3906 241.572 54.4792 237.994 75.75C234.416 97.0208 236.812 118.047 244.744 134.958C252.952 152.469 266.098 163.563 281.755 166.198ZM247.499 77.349C253.609 41.0313 276.994 13.6406 301.895 13.6406C303.713 13.6406 305.546 13.7969 307.333 14.0938C319.921 16.2135 330.603 25.526 337.411 40.3125C344.359 55.401 346.411 74.2708 343.187 93.4427C337.077 129.76 313.692 157.146 288.791 157.146C286.973 157.146 285.14 156.995 283.353 156.693C256.973 152.255 240.89 116.661 247.499 77.349ZM446.124 161.229C441.739 143.427 431.567 130.672 417.489 125.313C412.843 123.547 407.921 122.651 402.864 122.651C392.77 122.651 382.171 126.266 372.218 133.104C357.656 143.115 345.635 159.13 338.38 178.198C331.124 197.26 329.458 217.214 333.682 234.38C338.067 252.177 348.234 264.938 362.317 270.292C366.963 272.063 371.885 272.958 376.937 272.958C387.036 272.958 397.63 269.344 407.588 262.5C422.15 252.49 434.171 236.474 441.426 217.411C448.682 198.344 450.348 178.391 446.124 161.229ZM432.416 213.979C425.853 231.234 415.093 245.646 402.13 254.557C393.791 260.286 385.077 263.313 376.926 263.313C373.041 263.313 369.281 262.63 365.744 261.286C354.708 257.083 346.645 246.714 343.041 232.073C339.281 216.792 340.822 198.875 347.39 181.625C358.442 152.583 381.265 132.297 402.895 132.297C406.775 132.297 410.531 132.979 414.062 134.318C425.234 138.573 433.338 149.099 436.88 163.953C440.505 179.135 438.916 196.901 432.416 213.979ZM125.468 148.786C136.926 160.563 150.103 166.786 163.577 166.786C165.937 166.786 168.322 166.589 170.661 166.198C186.312 163.563 199.458 152.469 207.666 134.958C215.598 118.047 217.994 97.0208 214.416 75.75C210.838 54.4792 201.697 35.3906 188.671 22.0052C177.208 10.224 164.031 4 150.562 4C148.197 4 145.812 4.19792 143.478 4.59375C127.822 7.22396 114.682 18.3177 106.473 35.8281C98.541 52.7396 96.1451 73.7708 99.7181 95.0365C103.296 116.307 112.442 135.396 125.468 148.786ZM114.999 40.3125C121.807 25.526 132.489 16.2135 145.077 14.0938C146.864 13.7969 148.697 13.6406 150.515 13.6406C175.416 13.6406 198.801 41.0313 204.911 77.349C211.52 116.661 195.442 152.255 169.057 156.693C167.27 156.995 165.442 157.146 163.619 157.146C138.718 157.141 115.333 129.755 109.228 93.4427C105.999 74.2708 108.051 55.401 114.999 40.3125ZM118.728 234.38C122.952 217.219 121.286 197.266 114.031 178.198C106.775 159.13 94.7597 143.115 80.192 133.104C70.2389 126.266 59.6399 122.646 49.5462 122.646C44.4889 122.646 39.567 123.547 34.9212 125.313C20.843 130.672 10.6712 143.427 6.28576 161.229C2.0618 178.391 3.72846 198.344 10.9837 217.411C18.2441 236.474 30.2597 252.49 44.8274 262.5C54.7806 269.344 65.3795 272.958 75.4733 272.958C80.5253 272.958 85.4472 272.063 90.0931 270.292C104.176 264.938 114.343 252.177 118.728 234.38ZM75.4889 263.313C67.3326 263.313 58.6139 260.281 50.2858 254.557C37.317 245.646 26.5566 231.234 19.9941 213.979C13.4941 196.901 11.9108 179.135 15.5305 163.953C19.0722 149.099 27.1764 138.573 38.3535 134.318C41.8795 132.979 45.6347 132.297 49.5201 132.297C71.1451 132.297 93.9733 152.583 105.025 181.625C111.588 198.875 113.13 216.792 109.369 232.073C105.765 246.714 97.7024 257.083 86.666 261.286C83.1347 262.63 79.3743 263.313 75.4889 263.313ZM346.077 294.724C330.916 271.031 313.801 250.901 296.588 236.516C273.572 217.286 249.895 207.536 226.202 207.536C202.515 207.536 178.838 217.286 155.827 236.516C138.609 250.901 121.494 271.031 106.333 294.724C96.9003 309.469 84.8951 331.807 81.291 354.484C77.1764 380.385 84.7493 400.474 103.807 414.193C112.369 420.365 123.15 423.49 135.838 423.49C141.166 423.49 146.822 422.922 152.666 421.802C180.322 416.5 210.645 398.943 226.202 379.484C241.765 398.943 272.093 416.5 299.749 421.802C305.588 422.922 311.249 423.49 316.572 423.49C329.26 423.49 340.041 420.365 348.609 414.193C367.661 400.474 375.234 380.385 371.119 354.484C367.515 331.807 355.515 309.474 346.077 294.724ZM227.557 363.495L184.255 310.807C184.244 310.797 184.171 310.714 184.166 310.703C178.999 304.896 176.484 298.818 176.484 292.125C176.484 278.797 187.327 267.958 200.65 267.958C209.562 267.958 217.728 272.849 221.963 280.719C222.807 282.281 224.432 283.255 226.208 283.255C227.984 283.255 229.614 282.281 230.452 280.719C234.682 272.844 242.843 267.958 251.755 267.958C265.083 267.958 275.926 278.797 275.926 292.125C275.926 297.526 274.932 301.354 272.603 304.906L227.557 363.495ZM342.973 406.37C336.088 411.333 327.213 413.849 316.603 413.849H316.598C311.848 413.849 306.791 413.339 301.562 412.339C275.619 407.365 246.551 390.255 232.885 372.375L280.348 310.641C280.416 310.552 280.484 310.458 280.541 310.375C284.015 305.161 285.562 299.531 285.562 292.125C285.562 273.484 270.395 258.318 251.755 258.318C241.932 258.318 232.588 262.635 226.208 269.995C219.822 262.635 210.478 258.318 200.656 258.318C182.015 258.318 166.848 273.484 166.848 292.125C166.848 301.271 170.145 309.432 176.874 317.005L220.869 370.542C207.848 389.073 177.676 407.193 150.848 412.339C145.624 413.339 140.567 413.849 135.817 413.849C125.197 413.849 116.322 411.333 109.437 406.375C93.5826 394.953 87.3118 378.005 90.8066 356C94.1503 334.969 105.51 313.896 114.452 299.922C129.088 277.042 145.536 257.677 162.005 243.911C183.239 226.172 204.838 217.177 226.208 217.177C247.572 217.177 269.171 226.172 290.406 243.911C306.874 257.677 323.322 277.042 337.958 299.922C346.9 313.896 358.26 334.969 361.603 356C365.098 378.005 358.833 394.953 342.973 406.375V406.37Z" stroke="#EF4444" stroke-width="8" mask="url(#path-7-outside-1_592_2340)"/>
</svg>
